<?xml version="1.0" encoding="UTF-8" standalone="no"?>
<!-- Created with Inkscape (http://www.inkscape.org/) -->

<svg
   xmlns:dc="http://purl.org/dc/elements/1.1/"
   xmlns:cc="http://creativecommons.org/ns#"
   xmlns:rdf="http://www.w3.org/1999/02/22-rdf-syntax-ns#"
   xmlns:svg="http://www.w3.org/2000/svg"
   xmlns="http://www.w3.org/2000/svg"
   xmlns:sodipodi="http://sodipodi.sourceforge.net/DTD/sodipodi-0.dtd"
   xmlns:inkscape="http://www.inkscape.org/namespaces/inkscape"
   width="29.811588mm"
   height="16.455999mm"
   viewBox="0 0 105.63161 58.308659"
   id="svg2"
   version="1.1"
   inkscape:version="0.91 r13725"
   sodipodi:docname="Comic.svg">
  <defs
     id="defs4" />
  <sodipodi:namedview
     id="base"
     pagecolor="#ffffff"
     bordercolor="#666666"
     borderopacity="1.0"
     inkscape:pageopacity="0.0"
     inkscape:pageshadow="2"
     inkscape:zoom="2.1594809"
     inkscape:cx="-15.425163"
     inkscape:cy="33.954079"
     inkscape:document-units="px"
     inkscape:current-layer="layer1"
     showgrid="false"
     inkscape:window-width="1218"
     inkscape:window-height="697"
     inkscape:window-x="54"
     inkscape:window-y="-8"
     inkscape:window-maximized="1"
     fit-margin-top="0"
     fit-margin-left="0"
     fit-margin-right="0"
     fit-margin-bottom="0" />
  <metadata
     id="metadata7">
    <rdf:RDF>
      <cc:Work
         rdf:about="">
        <dc:format>image/svg+xml</dc:format>
        <dc:type
           rdf:resource="http://purl.org/dc/dcmitype/StillImage" />
        <dc:title></dc:title>
      </cc:Work>
    </rdf:RDF>
  </metadata>
  <g
     inkscape:label="Ebene 1"
     inkscape:groupmode="layer"
     id="layer1"
     transform="translate(-165.53571,-468.61902)">
    <circle
       style="fill:#000000;fill-opacity:0;stroke:#000000;stroke-width:1;stroke-linejoin:miter;stroke-miterlimit:4;stroke-dasharray:none;stroke-dashoffset:0;stroke-opacity:1"
       id="path4136"
       cx="180.41284"
       cy="497.06076"
       r="8.4326792" />
    <path
       style="fill:none;fill-rule:evenodd;stroke:#000000;stroke-width:1px;stroke-linecap:butt;stroke-linejoin:miter;stroke-opacity:1"
       d="m 180.44643,505.57649 0,11.78571"
       id="path4138"
       inkscape:connector-curvature="0" />
    <path
       style="fill:none;fill-rule:evenodd;stroke:#000000;stroke-width:1px;stroke-linecap:butt;stroke-linejoin:miter;stroke-opacity:1"
       d="m 165.53571,517.71935 105.42823,0"
       id="path4140"
       inkscape:connector-curvature="0"
       sodipodi:nodetypes="cc" />
    <circle
       style="fill:#000000;fill-opacity:0;stroke:#000000;stroke-width:1;stroke-linejoin:miter;stroke-miterlimit:4;stroke-dasharray:none;stroke-dashoffset:0;stroke-opacity:1"
       id="path4136-0"
       cx="231.96428"
       cy="497.21353"
       r="8.4326792" />
    <path
       style="fill:none;fill-rule:evenodd;stroke:#000000;stroke-width:1px;stroke-linecap:butt;stroke-linejoin:miter;stroke-opacity:1"
       d="m 231.99788,505.72926 0,11.78571"
       id="path4138-1"
       inkscape:connector-curvature="0" />
    <path
       style="fill:none;fill-rule:evenodd;stroke:#000000;stroke-width:1px;stroke-linecap:butt;stroke-linejoin:miter;stroke-opacity:1"
       d="m 221.09714,517.73897 0,0 10.85914,-11.74302 -10.35407,20.70812"
       id="path4162"
       inkscape:connector-curvature="0" />
    <path
       style="fill:none;fill-rule:evenodd;stroke:#000000;stroke-width:1px;stroke-linecap:butt;stroke-linejoin:miter;stroke-opacity:1"
       d="m 180.4385,505.61714 -6.81853,-23.73859"
       id="path4164"
       inkscape:connector-curvature="0"
       sodipodi:nodetypes="cc" />
    <path
       style="fill:none;fill-rule:evenodd;stroke:#000000;stroke-width:1px;stroke-linecap:butt;stroke-linejoin:miter;stroke-opacity:1"
       d="m 184.1003,489.32843 2.14658,-8.33376"
       id="path4166"
       inkscape:connector-curvature="0" />
    <path
       style="fill:#ffffff;fill-opacity:0;stroke:#000000;stroke-width:1;stroke-linecap:butt;stroke-linejoin:miter;stroke-miterlimit:4;stroke-dasharray:none;stroke-dashoffset:0;stroke-opacity:1"
       d="m 206.70898,473.05469 c -5.9283,0 -10.70117,2.02727 -10.70117,4.54687 l 0,1.625 c 0,2.51961 4.77287,4.54688 10.70117,4.54688 l 5.14063,0 c 0.72517,6.47686 2.79417,9.34995 8.35547,12.42773 -3.09047,-3.97315 -4.69943,-5.8721 -5.01172,-12.42773 l 6.80273,0 c 5.92831,0 10.70118,-2.02727 10.70118,-4.54688 l 0,-1.625 c 0,-2.5196 -4.77287,-4.54687 -10.70118,-4.54687 l -15.28711,0 z"
       id="rect4168"
       inkscape:connector-curvature="0" />
    <text
       xml:space="preserve"
       style="font-style:normal;font-weight:normal;font-size:5px;line-height:125%;font-family:sans-serif;letter-spacing:0px;word-spacing:0px;writing-mode:lr-tb;fill:#000000;fill-opacity:1;stroke:none;stroke-width:1px;stroke-linecap:butt;stroke-linejoin:miter;stroke-opacity:1"
       x="199.12192"
       y="480.11819"
       id="text4170"
       sodipodi:linespacing="125%"><tspan
         sodipodi:role="line"
         id="tspan4172"
         x="199.12192"
         y="480.11819">16, 21, <tspan
   style="fill:#0000ff"
   id="tspan4219">3</tspan>, ...</tspan></text>
    <path
       style="fill:#ffffff;fill-opacity:0;stroke:#000000;stroke-width:1;stroke-linejoin:miter;stroke-miterlimit:4;stroke-dasharray:none;stroke-dashoffset:0;stroke-opacity:1"
       d="m 255.38607,469.1196 a 5.556891,4.9780483 0 0 1 5.26367,3.39649 5.3253536,4.9780483 0 0 1 3.30273,-1.08008 5.3253536,4.9780483 0 0 1 5.32617,4.97852 5.3253536,4.9780483 0 0 1 -0.33398,1.7207 4.3992052,4.3992052 0 0 1 1.72266,3.48828 4.3992052,4.3992052 0 0 1 -4.40039,4.39844 4.3992052,4.3992052 0 0 1 -0.27149,-0.008 4.5149741,3.7045939 0 0 1 -4.47461,3.25 4.5149741,3.7045939 0 0 1 -3.10937,-1.02149 5.9041967,4.1676683 0 0 1 -4.99414,1.94727 5.9041967,4.1676683 0 0 1 -5.82422,-3.51367 6.0199652,4.746511 0 0 1 -3.01367,-2.75391 3.8203626,2.4311397 0 0 1 -0.42383,0.0156 3.8203626,2.4311397 0 0 1 -3.82032,-2.42968 3.8203626,2.4311397 0 0 1 2.06641,-2.15821 5.9041967,5.0938168 0 0 1 -0.67578,-2.35742 5.9041967,5.0938168 0 0 1 5.90234,-5.09375 5.9041967,5.0938168 0 0 1 2.53907,0.5 5.556891,4.9780483 0 0 1 5.21875,-3.2793 z"
       id="path4174"
       inkscape:connector-curvature="0" />
    <text
       xml:space="preserve"
       style="font-style:normal;font-weight:normal;font-size:5px;line-height:125%;font-family:sans-serif;letter-spacing:0px;word-spacing:0px;writing-mode:lr-tb;fill:#000000;fill-opacity:1;stroke:none;stroke-width:1px;stroke-linecap:butt;stroke-linejoin:miter;stroke-opacity:1"
       x="246.12395"
       y="481.16013"
       id="text4194"
       sodipodi:linespacing="125%"><tspan
         sodipodi:role="line"
         id="tspan4196"
         x="246.12395"
         y="481.16013">..., 11, <tspan
   style="fill:#008000"
   id="tspan4223">2</tspan></tspan></text>
    <circle
       style="fill:#ffffff;fill-opacity:0;stroke:#000000;stroke-width:1;stroke-linejoin:miter;stroke-miterlimit:4;stroke-dasharray:none;stroke-dashoffset:0;stroke-opacity:1"
       id="path4198"
       cx="238.62404"
       cy="484.49429"
       r="1.3916324" />
    <circle
       style="fill:#ffffff;fill-opacity:0;stroke:#000000;stroke-width:1;stroke-linejoin:miter;stroke-miterlimit:4;stroke-dasharray:none;stroke-dashoffset:0;stroke-opacity:1"
       id="path4200"
       cx="237.31427"
       cy="487.93243"
       r="0.57302517" />
    <path
       style="fill:#ffffff;fill-opacity:1;stroke:#000000;stroke-width:1;stroke-linecap:butt;stroke-linejoin:miter;stroke-miterlimit:4;stroke-dasharray:none;stroke-dashoffset:0;stroke-opacity:1"
       d="m 200.36719,485.97656 c -4.04918,0 -7.3086,1.87899 -7.3086,4.21289 l 0,0.26172 c 0,2.18573 2.86969,3.95187 6.5586,4.16992 -2.00328,3.36075 -5.72422,4.75129 -8.71875,6.57227 4.53194,-1.03978 9.41305,-2.52532 12.20117,-6.5293 l 4.67969,0 c 4.04918,0 7.31054,-1.87899 7.31054,-4.21289 l 0,-0.26172 c 0,-2.3339 -3.26136,-4.21289 -7.31054,-4.21289 l -7.41211,0 z"
       id="rect4205"
       inkscape:connector-curvature="0" />
    <text
       xml:space="preserve"
       style="font-style:normal;font-weight:normal;font-size:5px;line-height:125%;font-family:sans-serif;letter-spacing:0px;word-spacing:0px;writing-mode:lr-tb;fill:#000000;fill-opacity:1;stroke:none;stroke-width:1px;stroke-linecap:butt;stroke-linejoin:miter;stroke-opacity:1"
       x="195.15117"
       y="491.91696"
       id="text4207"
       sodipodi:linespacing="125%"><tspan
         sodipodi:role="line"
         id="tspan4209"
         x="195.15117"
         y="491.91696">STOPP!</tspan></text>
  </g>
</svg>
